Coordinates
version=1
nRows=19
nColumns=33
inDegrees=yes

Units are S.I. units (second, meters, Newtons, ...)
Angles are in degrees.

endheader
time	ground_thorax_rot_x	ground_thorax_rot_y	ground_thorax_rot_z	ground_thorax_tx	ground_thorax_ty	ground_thorax_tz	clav_prot_r	clav_elev_r	scapula_abduction_r	scapula_elevation_r	scapula_upward_rot_r	scapula_winging_r	shoulder_elv_r	plane_of_elev_r	axial_rot_r	elbow_flexion_r	pro_sup_r	wrist_flex_r	wrist_dev_r	clav_prot_l	clav_elev_l	scapula_abduction_l	scapula_elevation_l	scapula_upward_rot_l	scapula_winging_l	shoulder_elv_l	plane_of_elev_l	axial_rot_l	elbow_flexion_l	pro_sup_l	wrist_flex_l	wrist_dev_l	
8.7200	-90.000000	90.000000	-90.000000	-84.774039	850.220435	-39.398388	30.101004	34.659197	45.000000	45.000000	13.450066	2141.148996	2990.742845	30.416954	-38.843339	2517.993142	156.423780	14.712891	15.497551	-45.000000	22.904939	38.622706	-17.612683	45.000000	2626.612529	-5453.771292	139.230919	41.824017	1430.486840	-316.365127	14.627440	-20.907703	
8.7300	-90.000000	90.000000	-90.000000	-82.114787	849.364123	-39.214406	30.048692	34.731613	45.000000	45.000000	13.264163	2140.829854	2990.672377	30.299973	-39.609122	2518.008072	156.542289	14.553486	15.570860	-45.000000	22.993842	38.776822	-17.610003	45.000000	2626.675558	-5453.779581	139.414476	42.645324	1430.499228	-316.047163	14.661654	-20.757394	
8.7400	-90.000000	90.000000	-90.000000	-79.431483	848.460659	-39.024195	29.993501	34.806046	45.000000	45.000000	13.085824	2140.498350	2990.595564	30.190425	-40.371633	2518.026981	156.707500	14.399967	15.636302	-45.000000	23.080825	38.928586	-17.604981	45.000000	2626.737346	-5453.787055	139.590405	43.440853	1430.504063	-315.743721	14.687956	-20.601546	
8.7500	-90.000000	90.000000	-90.000000	-76.730371	847.509892	-38.830263	29.935943	34.881939	45.000000	45.000000	12.915969	2140.155830	2990.513114	30.088245	-41.128473	2518.049083	156.917834	14.255176	15.692693	-45.000000	23.165343	39.077861	-17.599321	45.000000	2626.796120	-5453.795731	139.760805	44.206901	1430.499450	-315.456234	14.705424	-20.440958	
8.7600	-90.000000	90.000000	-90.000000	-74.017618	846.510609	-38.636081	29.875845	34.958817	45.000000	45.000000	12.752864	2139.806369	2990.428226	29.991666	-41.874728	2518.077155	157.171770	14.118591	15.740860	-45.000000	23.253319	39.225439	-17.594330	45.000000	2626.853172	-5453.804257	139.922076	44.943155	1430.488685	-315.187169	14.714649	-20.278866	
8.7700	-90.000000	90.000000	-90.000000	-71.299756	845.461445	-38.445115	29.813960	35.036202	45.000000	45.000000	12.597886	2139.450645	2990.341695	29.901367	-42.606907	2518.108995	157.467442	13.991715	15.779951	-45.000000	23.344055	39.370854	-17.592409	45.000000	2626.908405	-5453.814190	140.075357	45.643659	1430.468386	-314.937482	14.715545	-20.115361	
8.7800	-90.000000	90.000000	-90.000000	-68.582979	844.361441	-38.260396	29.750372	35.113723	45.000000	45.000000	12.450117	2139.092081	2990.255337	29.816607	-43.319832	2518.145313	157.802737	13.873541	15.810556	-45.000000	23.439494	39.515792	-17.595101	45.000000	2626.961218	-5453.826234	140.219789	46.306716	1430.441435	-314.709135	14.709180	-19.952135	
8.7900	-90.000000	90.000000	-90.000000	-65.873489	843.211287	-38.083406	29.685679	35.190920	45.000000	45.000000	12.310476	2138.731706	2990.169573	29.737319	-44.009933	2518.183888	158.174974	13.764209	15.832401	-45.000000	23.535715	39.661672	-17.603101	45.000000	2627.008674	-5453.842611	140.357954	46.926825	1430.405102	-314.502550	14.697039	-19.788292	
8.8000	-90.000000	90.000000	-90.000000	-63.176670	842.013381	-37.914428	29.620121	35.267299	45.000000	45.000000	12.179317	2138.370756	2990.085190	29.663727	-44.674801	2518.224260	158.580578	13.662457	15.845719	-45.000000	23.632427	39.808167	-17.617944	45.000000	2627.051000	-5453.865242	140.490915	47.503968	1430.362632	-314.319013	14.679962	-19.623562	
8.8100	-90.000000	90.000000	-90.000000	-60.497348	840.772066	-37.752718	29.553819	35.342142	45.000000	45.000000	12.054925	2138.007975	2990.003313	29.595837	-45.312797	2518.266752	159.014426	13.565619	15.851539	-45.000000	23.731404	39.951017	-17.636993	45.000000	2627.093254	-5453.888232	140.614326	48.037677	1430.311940	-314.158502	14.660905	-19.457354	
8.8200	-90.000000	90.000000	-90.000000	-57.839176	839.492921	-37.597322	29.487065	35.415288	45.000000	45.000000	11.937101	2137.644057	2989.924054	29.534690	-45.923126	2518.310657	159.470842	13.472353	15.850324	-45.000000	23.831508	40.090127	-17.660182	45.000000	2627.135134	-5453.910505	140.729144	48.530544	1430.257313	-314.021687	14.640322	-19.289140	
8.8300	-90.000000	90.000000	-90.000000	-55.205081	838.182441	-37.447173	29.419973	35.486739	45.000000	45.000000	11.824509	2137.279024	2989.847228	29.480323	-46.505658	2518.355973	159.944112	13.381402	15.842789	-45.000000	23.932205	40.226197	-17.684892	45.000000	2627.175566	-5453.930113	140.835297	48.984311	1430.199735	-313.908112	14.619503	-19.118636	
8.8400	-90.000000	90.000000	-90.000000	-52.597193	836.847213	-37.301516	29.352613	35.556692	45.000000	45.000000	11.717829	2136.914124	2989.772851	29.433303	-47.061178	2518.401490	160.428642	13.292873	15.829337	-45.000000	24.033477	40.360491	-17.711388	45.000000	2627.213576	-5453.947808	140.934594	49.403256	1430.142726	-313.816933	14.598347	-18.945936	
8.8500	-90.000000	90.000000	-90.000000	-50.017256	835.493416	-37.159777	29.284315	35.625529	45.000000	45.000000	11.614090	2136.550395	2989.701701	29.392400	-47.589743	2518.448710	160.918873	13.204802	15.812008	-45.000000	24.139395	40.491989	-17.736390	45.000000	2627.252747	-5453.958023	141.021982	49.792958	1430.086969	-313.746246	14.578694	-18.772868	
8.8600	-90.000000	90.000000	-90.000000	-47.466766	834.126328	-37.021480	29.215362	35.694093	45.000000	45.000000	11.516011	2136.187787	2989.631824	29.359092	-48.093611	2518.494725	161.410864	13.119716	15.789411	-45.000000	24.245824	40.622189	-17.762669	45.000000	2627.289607	-5453.965109	141.104262	50.156488	1430.032600	-313.693010	14.557938	-18.597615	
8.8700	-90.000000	90.000000	-90.000000	-44.947016	832.750011	-36.886068	29.145129	35.763066	45.000000	45.000000	11.422441	2135.826650	2989.562221	29.332280	-48.573952	2518.540665	161.902224	13.037684	15.761621	-45.000000	24.353065	40.751043	-17.789679	45.000000	2627.323975	-5453.970020	141.181660	50.497552	1429.979927	-313.653977	14.535694	-18.420773	
8.8800	-90.000000	90.000000	-90.000000	-42.459342	831.367270	-36.753031	29.073136	35.832876	45.000000	45.000000	11.334460	2135.467422	2989.492941	29.311907	-49.032871	2518.585521	162.391258	12.959268	15.728724	-45.000000	24.462401	40.876683	-17.819580	45.000000	2627.358847	-5453.973003	141.254827	50.819626	1429.928301	-313.625449	14.511536	-18.242884	
8.8900	-90.000000	90.000000	-90.000000	-40.004877	829.979574	-36.621997	28.998131	35.903781	45.000000	45.000000	11.247818	2135.111528	2989.425828	29.295498	-49.470243	2518.632925	162.876545	12.880710	15.693935	-45.000000	24.580779	40.996256	-17.850349	45.000000	2627.401073	-5453.967679	141.315382	51.128491	1429.878489	-313.604889	14.487814	-18.068120	
8.9000	-90.000000	90.000000	-90.000000	-37.584670	828.587339	-36.492765	28.920568	35.975759	45.000000	45.000000	11.164401	2134.758271	2989.360350	29.284524	-49.888539	2518.680935	163.358199	12.802609	15.656491	-45.000000	24.706863	41.108829	-17.884506	45.000000	2627.450511	-5453.955108	141.366922	51.425200	1429.829088	-313.589898	14.462256	-17.895324	
